<svg width="16" height="22" viewBox="0 0 16 22" fill="none" xmlns="http://www.w3.org/2000/svg">
<path d="M13.9167 1H2.25C1.91848 1 1.60054 1.1317 1.36612 1.36612C1.1317 1.60054 1 1.91848 1 2.25V20.5833C1.00004 20.6577 1.01997 20.7307 1.05774 20.7947C1.0955 20.8588 1.14972 20.9116 1.21477 20.9476C1.27982 20.9836 1.35332 21.0016 1.42766 20.9996C1.50199 20.9977 1.57444 20.9759 1.6375 20.9365L8.08333 16.9083L14.5302 20.9365C14.5961 20.9777 14.6722 20.9997 14.75 21C14.8207 20.9998 14.8901 20.9819 14.9521 20.9479C15.0171 20.9118 15.0714 20.859 15.1091 20.7949C15.1468 20.7308 15.1667 20.6577 15.1667 20.5833V2.25C15.1667 1.91848 15.035 1.60054 14.8005 1.36612C14.5661 1.1317 14.2482 1 13.9167 1ZM14.3333 19.8312L8.30312 16.0635C8.2369 16.0222 8.16038 16.0002 8.08229 16.0002C8.0042 16.0002 7.92768 16.0222 7.86146 16.0635L1.83333 19.8312V2.25C1.83333 2.13949 1.87723 2.03351 1.95537 1.95537C2.03351 1.87723 2.13949 1.83333 2.25 1.83333H13.9167C14.0272 1.83333 14.1332 1.87723 14.2113 1.95537C14.2894 2.03351 14.3333 2.13949 14.3333 2.25V19.8312Z" stroke="black" stroke-width="0.8"/>
</svg>
