<svg width="20" height="18" viewBox="0 0 20 18" fill="none" xmlns="http://www.w3.org/2000/svg">
<path fill-rule="evenodd" clip-rule="evenodd" d="M4.06884 1.81793C2.52558 2.54687 1.39535 4.28173 1.39535 6.35029C1.39535 8.46309 2.23256 10.0922 3.4307 11.4885C4.41954 12.6387 5.61581 13.5927 6.78233 14.5216C7.05954 14.7428 7.33488 14.963 7.60558 15.1833C8.09488 15.5824 8.53116 15.9314 8.95256 16.1863C9.37302 16.4402 9.71163 16.5565 10 16.5565C10.2884 16.5565 10.627 16.4411 11.0474 16.1863C11.4688 15.9314 11.9051 15.5824 12.3944 15.1833C12.6642 14.9621 12.9405 14.7428 13.2177 14.5226C14.3842 13.5917 15.5805 12.6387 16.5693 11.4885C17.7684 10.0922 18.6047 8.46309 18.6047 6.35029C18.6047 4.28269 17.4744 2.54687 15.9312 1.81793C14.4316 1.10917 12.4167 1.2967 10.5023 3.35372C10.4372 3.42352 10.3592 3.47905 10.2729 3.51697C10.1866 3.55489 10.0938 3.57444 10 3.57444C9.90622 3.57444 9.8134 3.55489 9.72709 3.51697C9.64078 3.47905 9.56276 3.42352 9.49767 3.35372C7.58326 1.2967 5.56837 1.10917 4.06884 1.81793ZM10 1.85255C7.8493 -0.138118 5.44093 -0.417003 3.48837 0.505242C1.42884 1.48134 0 3.7432 0 6.35125C0 8.91411 1.03256 10.8702 2.38791 12.4473C3.47256 13.71 4.8 14.7669 5.97302 15.6997C6.23907 15.9112 6.49674 16.117 6.7414 16.3171C7.2186 16.7056 7.73023 17.1191 8.24837 17.4326C8.76651 17.7452 9.35814 18 10 18C10.6419 18 11.2335 17.7452 11.7516 17.4326C12.2707 17.1191 12.7814 16.7056 13.2586 16.3171C13.5134 16.1095 13.7695 15.9037 14.027 15.6997C15.1991 14.7669 16.5274 13.709 17.6121 12.4473C18.9674 10.8702 20 8.91411 20 6.35125C20 3.7432 18.5721 1.48134 16.5116 0.507165C14.5591 -0.416041 12.1507 -0.137156 10 1.85255Z" fill="black"/>
</svg>
