<?xml version="1.0" encoding="UTF-8" standalone="no"?>
<svg
   xmlns:dc="http://purl.org/dc/elements/1.1/"
   xmlns:cc="http://creativecommons.org/ns#"
   xmlns:rdf="http://www.w3.org/1999/02/22-rdf-syntax-ns#"
   xmlns:svg="http://www.w3.org/2000/svg"
   xmlns="http://www.w3.org/2000/svg"
   viewBox="0 0 266.66666 53.333332"
   height="53.333332"
   width="266.66666"
   xml:space="preserve"
   id="svg2"
   version="1.1"><metadata
     id="metadata8"><rdf:RDF><cc:Work
         rdf:about=""><dc:format>image/svg+xml</dc:format><dc:type
           rdf:resource="http://purl.org/dc/dcmitype/StillImage" /></cc:Work></rdf:RDF></metadata><defs
     id="defs6"><clipPath
       id="clipPath18"
       clipPathUnits="userSpaceOnUse"><path
         id="path16"
         d="M 0,40 H 200 V 0 H 0 Z" /></clipPath></defs><g
     transform="matrix(1.3333333,0,0,-1.3333333,0,53.333333)"
     id="g10"><g
       id="g12"><g
         clip-path="url(#clipPath18)"
         id="g14"><g
           transform="translate(21.1555,12.0936)"
           id="g20"><path
             id="path22"
             style="fill:#e5151f;fill-opacity:1;fill-rule:nonzero;stroke:none"
             d="m 0,0 c 0,0 3.217,-4.485 8.677,-0.845 0,0 -2.637,-4.551 -3.33,-6.213 C 5.239,-7.319 5.082,-7.559 4.873,-7.75 4.307,-8.269 3.209,-8.646 2.177,-5.395 Z" /></g><g
           transform="translate(14.9485,31.7427)"
           id="g24"><path
             id="path26"
             style="fill:#e5151f;fill-opacity:1;fill-rule:nonzero;stroke:none"
             d="M 0,0 C 0.186,0.992 0.689,2.586 2.025,3.229 2.386,3.403 2.813,3.394 3.162,3.197 4.011,2.719 5.503,1.364 5.155,-2.187 5.132,-2.423 5.086,-2.657 5.011,-2.882 4.746,-3.678 3.951,-5.42 2.128,-5.171 c 0,0 -1.85,0.048 -2.192,3.676 C -0.112,-0.996 -0.093,-0.493 0,0" /></g><g
           transform="translate(12.2375,23.8918)"
           id="g28"><path
             id="path30"
             style="fill:#e5151f;fill-opacity:1;fill-rule:nonzero;stroke:none"
             d="m 0,0 c 0,0 5.117,1.184 7.026,2.788 0,0 1.49,0.763 2.482,3.284 0,0 -0.715,-4.191 3.462,-6.6 0.054,-0.03 0.109,-0.059 0.164,-0.087 0.773,-0.384 7.269,-3.817 4.394,-9.352 0,0 -1.528,-3.169 -5.537,-2.367 0,0 -3.471,1.222 -2.862,4.658 0,0 0.57,3.361 4.045,2.712 0,0 2.406,-0.573 1.375,-3.628 0,0 -0.229,-0.649 -1.336,-0.496 0,0 -1.013,0 -0.436,1.269 0.133,0.292 0.162,0.627 0.043,0.924 -0.106,0.267 -0.329,0.516 -0.789,0.536 -0.43,0.018 -0.833,-0.208 -1.077,-0.562 -0.38,-0.554 -0.75,-1.583 0.158,-3.008 0,0 2.101,-2.673 4.812,-0.076 0,0 2.149,2.323 -0.011,5.248 -0.866,1.172 -2.203,1.93 -3.66,1.965 -1.389,0.033 -3.145,-0.511 -4.616,-2.821 0,0 -1.26,-1.719 -0.305,-4.354 0,0 -1.528,2.543 -7.332,6.771 0,0 -3.044,2.322 0,3.196" /></g><g
           transform="translate(22.9384,33.0505)"
           id="g32"><path
             id="path34"
             style="fill:#e5151f;fill-opacity:1;fill-rule:nonzero;stroke:none"
             d="m 0,0 c 0,0 0.905,1.222 1.573,2.989 0.142,0.376 0.418,0.693 0.785,0.855 0.713,0.313 1.832,0.136 2.404,-3.43 0,0 1.776,-8.563 3.15,-10.093 0.215,-0.24 0.426,-0.485 0.614,-0.748 0.723,-1.007 2.723,-3.33 7.365,-6.222 0.516,-0.321 0.978,-0.723 1.35,-1.203 1.005,-1.297 2.13,-3.61 -3.266,-3.006 0,0 -4.969,0.682 -6.056,-0.099 0,0 2.691,2.065 0.569,7.914 0,0 -0.32,1.51 -5.737,5.176 -1.136,0.769 -1.93,1.967 -2.138,3.323 -0.105,0.683 -0.07,1.422 0.267,2.111 0,0 0.524,1.189 1.639,1.556 0.674,0.221 0.949,1.031 0.54,1.611 C 3.051,0.746 3.042,0.758 3.034,0.769 3.034,0.769 2.44,2.115 0,0" /></g><text
           id="text38"
           style="font-variant:normal;font-weight:900;font-stretch:normal;font-size:30px;font-family:'Noto Serif KR Black';-inkscape-font-specification:NotoSerifKR-Black;writing-mode:lr-tb;fill:#e5151f;fill-opacity:1;fill-rule:nonzero;stroke:none"
           transform="matrix(1,0,0,-1,40.8145,9.5605)"><tspan
             id="tspan36"
             y="0"
             x="0 28.98 57.959999 86.940002 115.92">신시컴퍼니</tspan></text>
</g></g></g></svg>